<svg width="151" height="55" viewBox="0 0 151 55" fill="none" xmlns="http://www.w3.org/2000/svg">
<g clip-path="url(#clip0_117_2)">
<path fill-rule="evenodd" clip-rule="evenodd" d="M35.1391 16.0673C32.8779 14.5564 30.2195 13.75 27.5 13.75V0C32.939 0 38.2558 1.61285 42.7782 4.63459C47.3006 7.65632 50.8252 11.9512 52.9067 16.9762C54.988 22.0011 55.5327 27.5305 54.4716 32.865C53.4105 38.1994 50.7914 43.0995 46.9454 46.9454C43.0995 50.7914 38.1994 53.4105 32.865 54.4716C27.5305 55.5327 22.0011 54.988 16.9762 52.9067C11.9512 50.8252 7.65632 47.3006 4.63459 42.7782C1.61285 38.2558 0 32.939 0 27.5H13.75C13.75 30.2195 14.5564 32.8779 16.0673 35.1391C17.5781 37.4003 19.7256 39.1626 22.2382 40.2034C24.7506 41.2441 27.5153 41.5163 30.1825 40.9857C32.8497 40.4553 35.2997 39.1457 37.2228 37.2228C39.1457 35.2997 40.4553 32.8497 40.9857 30.1825C41.5163 27.5153 41.2441 24.7506 40.2034 22.2382C39.1626 19.7256 37.4003 17.5781 35.1391 16.0673Z" fill="#007DFC"/>
<path fill-rule="evenodd" clip-rule="evenodd" d="M13.75 5.95547e-06C13.75 1.80568 13.3944 3.59368 12.7033 5.2619C12.0123 6.93013 10.9995 8.44592 9.72272 9.72273C8.44592 10.9995 6.93013 12.0123 5.2619 12.7034C3.59367 13.3943 1.80567 13.75 6.01026e-07 13.75L0 27.5C3.61135 27.5 7.18734 26.7887 10.5238 25.4067C13.8603 24.0247 16.8919 21.999 19.4454 19.4454C21.999 16.8919 24.0247 13.8603 25.4067 10.5238C26.7887 7.18734 27.5 3.61135 27.5 0L13.75 5.95547e-06Z" fill="#007DFC"/>
</g>
<path d="M84.904 19.66V35.5H83.08V25.54L83.296 21.364H83.272L78.064 35.5H76.432L71.224 21.364H71.2L71.416 25.54V35.5H69.592V19.66H72.544L76.024 29.284L77.224 33.244H77.272L78.496 29.308L81.952 19.66H84.904ZM99.5804 23.5L93.9404 37.516C93.6364 38.3 93.3004 38.916 92.9324 39.364C92.5804 39.828 92.1804 40.156 91.7324 40.348C91.3004 40.556 90.7964 40.66 90.2204 40.66C89.6764 40.66 89.1724 40.58 88.7084 40.42C88.2604 40.276 87.8604 40.076 87.5084 39.82L88.0364 38.14C88.3564 38.428 88.6924 38.636 89.0444 38.764C89.4124 38.908 89.7724 38.98 90.1244 38.98C90.5404 38.98 90.9324 38.852 91.3004 38.596C91.6684 38.34 92.0044 37.82 92.3084 37.036L92.9324 35.476L91.7324 32.62L87.9164 23.5H90.1004L93.1004 31.324L93.8444 33.46L94.7084 31.084L97.5164 23.5H99.5804ZM102.451 35.5V19.66H108.091C109.963 19.66 111.331 20.052 112.195 20.836C113.059 21.62 113.491 22.684 113.491 24.028C113.491 24.828 113.259 25.556 112.795 26.212C112.331 26.852 111.675 27.26 110.827 27.436V27.46C111.771 27.636 112.515 28.068 113.059 28.756C113.619 29.428 113.899 30.196 113.899 31.06C113.899 32.404 113.395 33.484 112.387 34.3C111.379 35.1 109.939 35.5 108.067 35.5H102.451ZM104.371 33.7H108.523C109.659 33.7 110.499 33.468 111.043 33.004C111.603 32.54 111.883 31.892 111.883 31.06C111.883 30.212 111.603 29.564 111.043 29.116C110.499 28.652 109.659 28.42 108.523 28.42H104.371V33.7ZM104.371 26.62H108.115C110.355 26.62 111.475 25.756 111.475 24.028C111.475 22.316 110.355 21.46 108.115 21.46H104.371V26.62ZM119.595 17.98V32.452C119.595 33.06 119.707 33.484 119.931 33.724C120.155 33.948 120.515 34.06 121.011 34.06C121.331 34.06 121.595 34.036 121.803 33.988C122.011 33.94 122.291 33.852 122.643 33.724L122.331 35.404C122.075 35.516 121.795 35.596 121.491 35.644C121.187 35.708 120.875 35.74 120.555 35.74C119.579 35.74 118.851 35.476 118.371 34.948C117.907 34.42 117.675 33.612 117.675 32.524V17.98H119.595ZM130.075 23.26C131.211 23.26 132.211 23.508 133.075 24.004C133.955 24.5 134.643 25.22 135.139 26.164C135.635 27.092 135.883 28.204 135.883 29.5C135.883 30.796 135.635 31.916 135.139 32.86C134.643 33.788 133.955 34.5 133.075 34.996C132.211 35.492 131.211 35.74 130.075 35.74C128.955 35.74 127.955 35.492 127.075 34.996C126.195 34.5 125.507 33.788 125.011 32.86C124.515 31.916 124.267 30.796 124.267 29.5C124.267 28.204 124.515 27.092 125.011 26.164C125.507 25.22 126.195 24.5 127.075 24.004C127.955 23.508 128.955 23.26 130.075 23.26ZM130.075 24.916C129.259 24.916 128.563 25.1 127.987 25.468C127.411 25.836 126.963 26.364 126.643 27.052C126.339 27.724 126.187 28.54 126.187 29.5C126.187 30.444 126.339 31.26 126.643 31.948C126.963 32.636 127.411 33.164 127.987 33.532C128.563 33.9 129.259 34.084 130.075 34.084C130.891 34.084 131.587 33.9 132.163 33.532C132.739 33.164 133.179 32.636 133.483 31.948C133.803 31.26 133.963 30.444 133.963 29.5C133.963 28.54 133.803 27.724 133.483 27.052C133.179 26.364 132.739 25.836 132.163 25.468C131.587 25.1 130.891 24.916 130.075 24.916ZM149.602 21.292L150.034 22.996C150.018 22.996 149.994 22.996 149.962 22.996C149.93 22.996 149.898 22.996 149.866 22.996C149.082 22.996 148.474 23.156 148.042 23.476C147.626 23.78 147.418 24.276 147.418 24.964L146.242 24.364C146.242 23.74 146.386 23.196 146.674 22.732C146.962 22.268 147.354 21.916 147.85 21.676C148.346 21.42 148.89 21.292 149.482 21.292C149.498 21.292 149.514 21.292 149.53 21.292C149.562 21.292 149.586 21.292 149.602 21.292ZM145.954 33.964C147.09 33.964 147.978 34.228 148.618 34.756C149.258 35.268 149.578 35.956 149.578 36.82C149.578 37.604 149.314 38.284 148.786 38.86C148.274 39.436 147.578 39.876 146.698 40.18C145.834 40.5 144.858 40.66 143.77 40.66C141.882 40.66 140.466 40.34 139.522 39.7C138.594 39.06 138.13 38.292 138.13 37.396C138.13 36.756 138.338 36.18 138.754 35.668C139.186 35.172 139.906 34.892 140.914 34.828L140.746 35.188C140.202 35.044 139.738 34.804 139.354 34.468C138.986 34.116 138.802 33.612 138.802 32.956C138.802 32.3 139.042 31.74 139.522 31.276C140.018 30.796 140.746 30.5 141.706 30.388L142.978 31.036H142.738C141.954 31.116 141.394 31.316 141.058 31.636C140.738 31.94 140.578 32.276 140.578 32.644C140.578 33.092 140.738 33.428 141.058 33.652C141.394 33.86 141.858 33.964 142.45 33.964H145.954ZM143.746 39.052C144.674 39.052 145.434 38.956 146.026 38.764C146.634 38.572 147.082 38.324 147.37 38.02C147.658 37.716 147.802 37.388 147.802 37.036C147.802 36.604 147.626 36.26 147.274 36.004C146.938 35.748 146.322 35.62 145.426 35.62H141.73C141.218 35.62 140.786 35.748 140.434 36.004C140.082 36.276 139.906 36.644 139.906 37.108C139.906 37.7 140.242 38.172 140.914 38.524C141.602 38.876 142.546 39.052 143.746 39.052ZM143.578 23.26C144.538 23.26 145.386 23.436 146.122 23.788C146.874 24.124 147.458 24.596 147.874 25.204C148.29 25.812 148.498 26.516 148.498 27.316C148.498 28.1 148.29 28.804 147.874 29.428C147.458 30.036 146.874 30.516 146.122 30.868C145.386 31.204 144.538 31.372 143.578 31.372C141.994 31.372 140.778 30.996 139.93 30.244C139.082 29.476 138.658 28.5 138.658 27.316C138.658 26.516 138.866 25.812 139.282 25.204C139.714 24.596 140.298 24.124 141.034 23.788C141.77 23.436 142.618 23.26 143.578 23.26ZM143.578 24.82C142.746 24.82 142.05 25.052 141.49 25.516C140.93 25.964 140.65 26.564 140.65 27.316C140.65 28.052 140.93 28.652 141.49 29.116C142.05 29.58 142.746 29.812 143.578 29.812C144.41 29.812 145.106 29.58 145.666 29.116C146.226 28.652 146.506 28.052 146.506 27.316C146.506 26.564 146.226 25.964 145.666 25.516C145.106 25.052 144.41 24.82 143.578 24.82Z" fill="black"/>
<defs>
<clipPath id="clip0_117_2">
<rect width="55" height="55" fill="white"/>
</clipPath>
</defs>
</svg>
